<?xml version="1.0" encoding="utf-8"?>
<!-- Generator: Adobe Illustrator 24.0.2, SVG Export Plug-In . SVG Version: 6.00 Build 0)  -->
<svg version="1.1" id="Capa_1" xmlns="http://www.w3.org/2000/svg" xmlns:xlink="http://www.w3.org/1999/xlink" x="0px" y="0px"
	 viewBox="0 0 512 512" style="enable-background:new 0 0 512 512;" xml:space="preserve">
<style type="text/css">
	.st0{fill:#FFC350;}
	.st1{fill:#E1A546;}
	.st2{fill:#F8C0CD;}
	.st3{fill:#F4A8BD;}
	.st4{fill:#FFD164;}
</style>
<path class="st0" d="M256,0c-49.3,0-89.4,40.1-89.4,89.4v73.1h16.3V89.4c0-40.3,32.8-73.1,73.1-73.1s73.1,32.8,73.1,73.1v73.1h16.3
	V89.4C345.4,40.1,305.3,0,256,0z"/>
<g>
	<rect x="166.6" y="138.2" class="st1" width="16.3" height="24.4"/>
	<rect x="329.1" y="138.2" class="st1" width="16.3" height="24.4"/>
</g>
<path class="st2" d="M481.2,454.5l-47.3-260.1c-4.2-23.2-24.4-40-48-40H126c-23.6,0-43.8,16.9-48,40L30.8,454.5
	c-5.4,29.9,17.6,57.5,48,57.5h354.5C463.7,512,486.7,484.4,481.2,454.5z"/>
<g>
	<path class="st3" d="M245.9,471.4c-91.3,0-160.3-82.7-143.9-172.5l26.3-144.5H126c-23.6,0-43.8,16.9-48,40L30.8,454.5
		c-5.4,29.9,17.6,57.5,48,57.5h354.5c24.6,0,44.3-18,48.1-40.6H245.9z"/>
	<path class="st3" d="M370.4,301.8c4.8-13.1,7.5-27.1,7.5-41.8V154.4h-16.3v105.7c0,58.3-47.4,105.7-105.7,105.7
		s-105.7-47.4-105.7-105.7V154.4h-16.3v105.7c0,14.6,2.7,28.5,7.4,41.4c-9.4,7.4-15.5,18.8-15.5,31.7c0,22.4,18.2,40.6,40.6,40.6
		c10,0,19.1-3.7,26.1-9.8c18.5,11.3,40.1,17.9,63.2,17.9c23,0,44.5-6.5,62.9-17.7c7,5.9,16,9.6,25.9,9.6c22.4,0,40.6-18.2,40.6-40.6
		C385.5,320.5,379.6,309.3,370.4,301.8z"/>
</g>
<circle class="st4" cx="166.6" cy="333.2" r="24.4"/>
<path class="st0" d="M178.8,345.4c-13.5,0-24.4-10.9-24.4-24.4c0-3.6,0.8-6.9,2.2-10c-8.5,3.8-14.4,12.3-14.4,22.2
	c0,13.5,10.9,24.4,24.4,24.4c9.9,0,18.4-5.9,22.2-14.4C185.7,344.6,182.4,345.4,178.8,345.4z"/>
<circle class="st4" cx="345.4" cy="333.2" r="24.4"/>
<path class="st0" d="M357.6,345.4c-13.5,0-24.4-10.9-24.4-24.4c0-3.6,0.8-6.9,2.2-10c-8.5,3.8-14.4,12.3-14.4,22.2
	c0,13.5,10.9,24.4,24.4,24.4c9.9,0,18.4-5.9,22.2-14.4C364.5,344.6,361.2,345.4,357.6,345.4z"/>
</svg>
