<?xml version="1.0" encoding="utf-8"?>
<!-- Generator: Adobe Illustrator 24.0.2, SVG Export Plug-In . SVG Version: 6.00 Build 0)  -->
<svg version="1.1" id="Capa_1" xmlns="http://www.w3.org/2000/svg" xmlns:xlink="http://www.w3.org/1999/xlink" x="0px" y="0px"
	 viewBox="0 0 512 512" style="enable-background:new 0 0 512 512;" xml:space="preserve">
<style type="text/css">
	.st0{fill:#AEA8AF;}
	.st1{fill:#5D5360;}
	.st2{fill:#C0BCC1;}
	.st3{fill:#867E88;}
	.st4{fill:#9C969E;}
	.st5{fill:#FFE17D;}
	.st6{fill:#FFD164;}
	.st7{fill:#F8C0CD;}
	.st8{fill:#F4A8BD;}
</style>
<path class="st0" d="M503.9,341.3H97.5v16.3h406.3c4.5,0,8.1-3.6,8.1-8.1S508.4,341.3,503.9,341.3z"/>
<circle class="st1" cx="154.4" cy="471.4" r="24.4"/>
<path class="st0" d="M146.3,414.5v56.9c0,4.5,3.6,8.1,8.1,8.1s8.1-3.6,8.1-8.1v-56.9H146.3z"/>
<circle class="st1" cx="447" cy="471.4" r="24.4"/>
<path class="st0" d="M438.9,414.5v56.9c0,4.5,3.6,8.1,8.1,8.1s8.1-3.6,8.1-8.1v-56.9H438.9z"/>
<path class="st2" d="M471.4,422.6H130c-22.4,0-40.6-18.2-40.6-40.6l-0.5-252.1c0-8.6-3.4-16.8-9.5-22.9L55.2,82.9
	c-3.2-3.2-3.2-8.3,0-11.5c3.2-3.2,8.3-3.2,11.5,0l24.1,24.1c9.2,9.2,14.2,21.4,14.3,34.3l0.5,252.1c0,13.4,11,24.3,24.4,24.3h341.4
	c4.5,0,8.1,3.6,8.1,8.1S475.9,422.6,471.4,422.6z"/>
<path class="st3" d="M49.5,88.7L4.8,44c-6.3-6.3-6.3-16.6,0-23l0,0c6.3-6.3,16.6-6.3,23,0l44.7,44.7c6.3,6.3,6.3,16.6,0,23l0,0
	C66.1,95,55.8,95,49.5,88.7z"/>
<path class="st4" d="M27.7,21c-0.4-0.4-0.9-0.7-1.3-1.1c-0.4,0.4-0.9,0.7-1.3,1.1l0,0c-6.3,6.3-6.3,16.6,0,23l44.7,44.7
	c0.4,0.4,0.9,0.7,1.3,1.1c0.4-0.4,0.9-0.7,1.3-1.1l0,0c6.3-6.3,6.3-16.6,0-23L27.7,21z"/>
<path class="st5" d="M495.7,341.3H138.2c-4.5,0-8.1-3.6-8.1-8.1v-56.9c0-4.5,3.6-8.1,8.1-8.1h357.6c4.5,0,8.1,3.6,8.1,8.1v56.9
	C503.9,337.7,500.2,341.3,495.7,341.3z"/>
<path class="st6" d="M170.7,325.1c-13.5,0-24.4-10.9-24.4-24.4v-32.5h-8.1c-4.5,0-8.1,3.6-8.1,8.1v56.9c0,4.5,3.6,8.1,8.1,8.1h357.6
	c4.5,0,8.1-3.6,8.1-8.1v-8.1H170.7z"/>
<path class="st5" d="M479.5,203.2H154.4c-4.5,0-8.1-3.6-8.1-8.1v-48.8c0-4.5,3.6-8.1,8.1-8.1h325.1c4.5,0,8.1,3.6,8.1,8.1V195
	C487.6,199.5,484,203.2,479.5,203.2z"/>
<path class="st6" d="M186.9,186.9c-13.5,0-24.4-10.9-24.4-24.4v-24.4h-8.1c-4.5,0-8.1,3.6-8.1,8.1V195c0,4.5,3.6,8.1,8.1,8.1h325.1
	c4.5,0,8.1-3.6,8.1-8.1v-8.1L186.9,186.9L186.9,186.9z"/>
<path class="st7" d="M463.2,268.2H113.8c-4.5,0-8.1-3.6-8.1-8.1v-48.8c0-4.5,3.6-8.1,8.1-8.1h349.5c4.5,0,8.1,3.6,8.1,8.1v48.8
	C471.4,264.5,467.7,268.2,463.2,268.2z"/>
<path class="st8" d="M146.3,251.9c-13.5,0-24.4-10.9-24.4-24.4v-24.4h-8.1c-4.5,0-8.1,3.6-8.1,8.1v48.8c0,4.5,3.6,8.1,8.1,8.1h349.5
	c4.5,0,8.1-3.6,8.1-8.1v-8.1L146.3,251.9L146.3,251.9z"/>
</svg>
