<?xml version="1.0" encoding="utf-8"?>
<!-- Generator: Adobe Illustrator 24.0.2, SVG Export Plug-In . SVG Version: 6.00 Build 0)  -->
<svg version="1.1" id="Capa_1" xmlns="http://www.w3.org/2000/svg" xmlns:xlink="http://www.w3.org/1999/xlink" x="0px" y="0px"
	 viewBox="0 0 512 512" style="enable-background:new 0 0 512 512;" xml:space="preserve">
<style type="text/css">
	.st0{fill:#A59CA6;}
	.st1{fill:#F8C0CD;}
	.st2{fill:#F4A8BD;}
	.st3{fill:#FFD1C2;}
	.st4{fill:#FFE0D1;}
	.st5{fill:#8F8390;}
</style>
<g>
	<path class="st0" d="M314.1,342.8l1.1-0.7c17.7-12.4,32.6-28.5,43.4-47.3l6.5,3.6c1.3,0.7,2.8,0.3,3.6-0.9l9.2-15
		c41-66.5,38.5-151-6.3-215c-56-79.9-174.3-79.9-230.2,0c-44.8,64-47.3,148.5-6.3,215l10.6,17.2l8.7-4.9
		c10.8,18.7,25.6,34.9,43.4,47.3l1.1,0.7l30.2,22.7h61.7L314.1,342.8z"/>
	<path class="st1" d="M287.5,332.1l58.2,31.4c34,18.4,55.2,53.9,55.2,92.6v35.5c0,7.1-5.7,12.8-12.8,12.8H124.7
		c-7.1,0-12.8-5.7-12.8-12.8v-35.5c0-38.7,21.2-74.2,55.2-92.6l58.2-31.4l17.1-7.6h32.3L287.5,332.1z"/>
	<path class="st2" d="M293.8,335.5l-6.3-3.4l-12.8-7.6h-32.3l-17.1,7.6l-58.2,31.4c-34,18.4-55.2,53.9-55.2,92.6v35.5
		c0,7.1,5.7,12.8,12.8,12.8h26.5c0-0.4-0.1-0.7-0.1-1.1v-35.5c0-38.7,21.2-74.2,55.2-92.6c4.9-2.6,10.9-1.6,14.8,2.4
		c9,9.3,21.5,15,35.4,15c27.1,0,49.2-23.1,49.2-50.2v-0.5L293.8,335.5z"/>
	<path class="st3" d="M287.5,343.4c0,17.2-13.9,31.1-31.1,31.1s-31.1-13.9-31.1-31.1v-85.5h62.2L287.5,343.4L287.5,343.4z"/>
	<g>
		<path class="st4" d="M168.8,168.1v59.3c0,48.8,39.5,88.3,88.3,88.3s88.3-39.5,88.3-88.3v-91c0-6.9-8-10.8-13.4-6.6L318,140.6
			c-19.3,15.1-43.1,23.3-67.6,23.3H173C170.7,163.9,168.8,165.8,168.8,168.1z"/>
		<path class="st3" d="M248.2,185.3c30.4,0,59.8-8.8,83.8-25l13.3-9v-15c0-6.9-8-10.8-13.4-6.6L318,140.6
			c-19.3,15.1-43.1,23.3-67.6,23.3H173c-2.3,0-4.2,1.9-4.2,4.2v17.2L248.2,185.3L248.2,185.3z"/>
		<path class="st5" d="M293.3,112.3c-3.8-3.2-9.6-2.7-12.8,1.2l-37,44.5l-5.2,5.9h12.1c4.2,0,8.3-0.3,12.4-0.7l31.7-38.1
			C297.7,121.2,297.2,115.5,293.3,112.3z"/>
		<path class="st5" d="M236.3,112.2c-3.9-3.2-9.6-2.6-12.7,1.3L187.4,158l-5,5.8H206l31.6-38.9C240.8,121.1,240.2,115.4,236.3,112.2
			z"/>
	</g>
</g>
</svg>
