<?xml version="1.0" encoding="utf-8"?>
<!-- Generator: Adobe Illustrator 24.0.2, SVG Export Plug-In . SVG Version: 6.00 Build 0)  -->
<svg version="1.1" id="Capa_1" xmlns="http://www.w3.org/2000/svg" xmlns:xlink="http://www.w3.org/1999/xlink" x="0px" y="0px"
	 viewBox="0 0 512 512" style="enable-background:new 0 0 512 512;" xml:space="preserve">
<style type="text/css">
	.st0{fill:#FFEDB1;}
	.st1{fill:#FFE17D;}
	.st2{fill:#F4A8BD;}
	.st3{fill:#F8C0CD;}
	.st4{fill:#FFFFFF;}
	.st5{fill:#DBD9DC;}
	.st6{fill:#FFF6D8;}
</style>
<rect x="33" y="177.6" class="st0" width="445.9" height="280.8"/>
<path class="st1" d="M33,235.3c9.5,4,20,6.2,31,6.2c25.3,0,48.9-12,64-31.7c15.1,19.6,38.7,31.7,64,31.7c25.3,0,48.9-12,64-31.7
	c15.1,19.6,38.7,31.7,64,31.7c25.3,0,48.9-12,64-31.7c15.1,19.6,38.7,31.7,64,31.7c11,0,21.4-2.2,31-6.2v-57.8H33V235.3z"/>
<path class="st2" d="M512,161c0,35.3-28.7,64-64,64c-25.6,0-47.7-15-57.9-36.7c-2.5-5.3-9.7-5.3-12.2,0C367.7,210,345.6,225,320,225
	s-47.7-15-57.9-36.7c-2.5-5.3-9.7-5.3-12.2,0C239.7,210,217.6,225,192,225s-47.7-15-57.9-36.7c-2.5-5.3-9.7-5.3-12.2,0
	C111.7,210,89.6,225,64,225c-35.3,0-64-28.7-64-64L61.3,53.7c2.9-5.1,8.4-8.3,14.3-8.3h360.7c5.9,0,11.4,3.2,14.3,8.3L512,161z"/>
<path class="st3" d="M436.4,45.4H75.6c-5.9,0-11.4,3.2-14.3,8.3L0,161h512L450.7,53.7C447.8,48.6,442.3,45.4,436.4,45.4z"/>
<path class="st4" d="M338.6,268.4v189.9h99.1V268.4c0-4.6-3.7-8.3-8.3-8.3h-82.6C342.3,260.1,338.6,263.8,338.6,268.4z"/>
<path class="st5" d="M495.5,466.6h-479c-4.6,0-8.3-3.7-8.3-8.3s3.7-8.3,8.3-8.3h479c4.6,0,8.3,3.7,8.3,8.3S500,466.6,495.5,466.6z"
	/>
<path class="st4" d="M289,417H82.6c-4.6,0-8.3-3.7-8.3-8.3V268.4c0-4.6,3.7-8.3,8.3-8.3H289c4.6,0,8.3,3.7,8.3,8.3v140.4
	C297.3,413.3,293.6,417,289,417z"/>
<g>
	<path class="st6" d="M181.7,400.5h95c2.3,0,4.1-1.8,4.1-4.1v-95L181.7,400.5z"/>
	<polygon class="st6" points="132.1,400.5 256,276.6 228.7,276.6 104.9,400.5 	"/>
	<path class="st6" d="M199.6,276.6H95c-2.3,0-4.1,1.8-4.1,4.1v104.6L199.6,276.6z"/>
	<path class="st6" d="M421.2,291.2v-10.4c0-2.3-1.8-4.1-4.1-4.1h-57.8c-2.3,0-4.1,1.8-4.1,4.1v76.4L421.2,291.2z"/>
	<path class="st6" d="M355.1,392.3v12.4c0,2.3,1.8,4.1,4.1,4.1H417c2.3,0,4.1-1.8,4.1-4.1v-78.5L355.1,392.3z"/>
</g>
</svg>
