<?xml version="1.0" encoding="utf-8"?>
<!-- Generator: Adobe Illustrator 24.0.2, SVG Export Plug-In . SVG Version: 6.00 Build 0)  -->
<svg version="1.1" id="Capa_1" xmlns="http://www.w3.org/2000/svg" xmlns:xlink="http://www.w3.org/1999/xlink" x="0px" y="0px"
	 viewBox="0 0 512 512" style="enable-background:new 0 0 512 512;" xml:space="preserve">
<style type="text/css">
	.st0{fill:#C0BCC1;}
	.st1{fill:#C9C6CA;}
	.st2{fill:#F4A8BD;}
	.st3{fill:#FFE17D;}
	.st4{fill:#FFD164;}
	.st5{fill:#F8C0CD;}
</style>
<path class="st0" d="M475.9,322.1v-16.5h-96.3l8.5-90.1l-16.4-1.5l-8.6,91.6h-98.8v-90.8h-16.5v90.8H149l-8.6-91.6l-16.4,1.5
	l8.5,90.1H36.1v16.5h97.8l7,74.3H53.3v16.5h89.1l7.1,75.1l16.4-1.5l-6.9-73.5h88.7v74.3h16.5v-74.3h88.7l-6.9,73.5l16.4,1.5
	l7.1-75.1h89.1v-16.5h-87.6l7-74.3L475.9,322.1L475.9,322.1z M157.5,396.4l-7-74.3h97.2v74.3H157.5z M354.5,396.4h-90.2v-74.3h97.2
	L354.5,396.4z"/>
<path class="st1" d="M425.3,495.5H86.7c-16,0-29.6-11.4-32.5-27.1L8.4,216.2l16.2-3l45.8,252.2c1.4,7.9,8.3,13.6,16.3,13.6h338.5
	c8,0,14.8-5.7,16.3-13.6l45.8-252.2l16.2,3l-45.8,252.2C454.9,484.1,441.2,495.5,425.3,495.5z"/>
<path class="st2" d="M495.5,223h-479C7.4,223,0,215.6,0,206.5l0,0c0-9.1,7.4-16.5,16.5-16.5h479c9.1,0,16.5,7.4,16.5,16.5l0,0
	C512,215.6,504.6,223,495.5,223z"/>
<path class="st3" d="M144.2,216.7L144.2,216.7c-8.1-4.2-11.3-14.2-7.1-22.3l87.6-169c4.2-8.1,14.2-11.3,22.3-7.1l0,0
	c8.1,4.2,11.3,14.2,7.1,22.3l-87.6,169C162.3,217.7,152.3,220.9,144.2,216.7z"/>
<path class="st4" d="M153.7,198.8l87.6-169c2.2-4.2,5.8-7,10-8.2c-1.2-1.3-2.6-2.4-4.2-3.3c-8.1-4.2-18.1-1-22.3,7.1l-87.7,169
	c-4.2,8.1-1,18.1,7.1,22.3v0c3.9,2,8.3,2.3,12.3,1.2C151.7,212.9,150.3,205.3,153.7,198.8z"/>
<path class="st3" d="M264.9,18.4L264.9,18.4c-8.1,4.2-11.3,14.2-7.1,22.3l87.6,169c4.2,8.1,14.2,11.3,22.3,7.1l0,0
	c8.1-4.2,11.3-14.2,7.1-22.3l-87.6-169C283,17.3,273,14.2,264.9,18.4z"/>
<path class="st4" d="M274.4,36.2l87.6,169c2.2,4.2,5.8,7,10,8.2c-1.2,1.3-2.6,2.4-4.2,3.3c-8.1,4.2-18.1,1-22.3-7.1l-87.6-169
	c-4.2-8.1-1-18.1,7.1-22.3v0c3.9-2,8.3-2.3,12.3-1.2C272.4,22.2,271,29.8,274.4,36.2z"/>
<g>
	<path class="st5" d="M121.3,189.9H24.8c-4.6,0-8.3,3.7-8.3,8.3c0,4.6,3.7,8.3,8.3,8.3h90.1c2.3,0,3.9-1.9,3.9-4.2
		C118.9,198.1,119.7,193.9,121.3,189.9z"/>
	<path class="st5" d="M322.1,200.4l-5.4-10.5H195.3l-5.4,10.5c-1.4,2.7,0.6,6,3.7,6h124.9C321.6,206.5,323.5,203.2,322.1,200.4z"/>
	<path class="st5" d="M487.2,189.9h-96.5c1.6,4,2.3,8.2,2.3,12.4c0,2.3,2,4.1,4.4,4.1h89.8c4.6,0,8.3-3.7,8.3-8.3
		C495.5,193.6,491.8,189.9,487.2,189.9z"/>
</g>
</svg>
