<?xml version="1.0" encoding="utf-8"?>
<!-- Generator: Adobe Illustrator 24.0.2, SVG Export Plug-In . SVG Version: 6.00 Build 0)  -->
<svg version="1.1" id="Layer_1" xmlns="http://www.w3.org/2000/svg" xmlns:xlink="http://www.w3.org/1999/xlink" x="0px" y="0px"
	 viewBox="0 0 500 500" style="enable-background:new 0 0 500 500;" xml:space="preserve">
<style type="text/css">
	.st0{fill:#353434;}
	.st1{opacity:0.35;fill:#353434;}
	.st2{fill:#BAC2CC;}
	.st3{fill:#BFBFBF;}
	.st4{fill:#918E8E;}
	.st5{fill:#6D6A6A;}
</style>
<g>
	<path class="st0" d="M407.9,382.1l-30.5-177.8H135.2l-29.9,177.9c-0.7,4.3-0.5,8.5,0.6,12.5c5,19.1,28.8,33.9,57.9,33.9h185.5
		C384.7,428.6,412.1,406.8,407.9,382.1z M161.8,241.3c-6.2,0-11.2-5.3-11.2-11.8c0-6.5,5-11.8,11.2-11.8c6.2,0,11.2,5.3,11.2,11.8
		C173.1,236,168,241.3,161.8,241.3z M355.4,241.3c-6.2,0-11.2-5.3-11.2-11.8c0-6.5,5-11.8,11.2-11.8c6.2,0,11.2,5.3,11.2,11.8
		C366.6,236,361.6,241.3,355.4,241.3z"/>
	<path class="st1" d="M407.9,382.1l-30.5-177.8h-38c10.7,61.2,23.9,156.4,5.8,175.2c-25.2,26.3-155.3,41.7-239.3,15.2
		c5,19.1,28.8,33.9,57.9,33.9h185.5C384.7,428.6,412.1,406.8,407.9,382.1z M355.4,241.3c-6.2,0-11.2-5.3-11.2-11.8
		c0-6.5,5-11.8,11.2-11.8c6.2,0,11.2,5.3,11.2,11.8C366.6,236,361.6,241.3,355.4,241.3z"/>
	<path class="st1" d="M300.7,243.6h-84.4c-5,0-9-4-9-9l0,0c0-5,4-9,9-9h84.4c5,0,9,4,9,9l0,0C309.7,239.6,305.6,243.6,300.7,243.6z"
		/>
	<path class="st2" d="M305.1,231.7v3.5c0,3.3-3.8,6-8.6,6h-80.7c-1.7,0-3.3-0.3-4.6-1c-2.4-1.1-4-2.9-4-5.1v-3.5c0-3.3,3.8-6,8.6-6
		h80.7C301.3,225.7,305.1,228.4,305.1,231.7z"/>
	<path class="st3" d="M239.9,225.7l-18,15.6h-6.1c-1.7,0-3.3-0.3-4.6-1l16.9-14.7H239.9z"/>
	<polygon class="st3" points="250,225.7 232.1,241.3 224,241.3 242,225.7 	"/>
	<polygon class="st3" points="258.4,225.7 240.5,241.3 235.1,241.3 253.1,225.7 	"/>
	<path class="st4" d="M161.8,215.4c-7.4,0-13.5,6.3-13.5,14.1c0,7.8,6,14.1,13.5,14.1c7.4,0,13.5-6.3,13.5-14.1
		C175.3,221.7,169.3,215.4,161.8,215.4z M161.8,241.3c-6.2,0-11.2-5.3-11.2-11.8c0-6.5,5-11.8,11.2-11.8c6.2,0,11.2,5.3,11.2,11.8
		C173.1,236,168,241.3,161.8,241.3z"/>
	<path class="st4" d="M355.4,215.4c-7.4,0-13.5,6.3-13.5,14.1c0,7.8,6,14.1,13.5,14.1c7.4,0,13.5-6.3,13.5-14.1
		C368.9,221.7,362.8,215.4,355.4,215.4z M355.4,241.3c-6.2,0-11.2-5.3-11.2-11.8c0-6.5,5-11.8,11.2-11.8c6.2,0,11.2,5.3,11.2,11.8
		C366.6,236,361.6,241.3,355.4,241.3z"/>
	<path class="st4" d="M171.8,220c-0.2,1-0.5,1.9-0.7,2.8c1.2,1.9,2,4.2,2,6.7c0,6.5-5,11.8-11.2,11.8c-6.2,0-11.2-5.3-11.2-11.8
		c0-2.7,0.9-5.2,2.4-7.2c-0.3-0.9-0.5-1.8-0.7-2.8c-2.4,2.6-4,6.1-4,10c0,7.8,6,14.1,13.5,14.1c7.4,0,13.5-6.3,13.5-14.1
		C175.3,225.9,174,222.5,171.8,220z"/>
	<path class="st4" d="M168.4,220c0.2-0.8,0.3-1.6,0.5-2.5c-2.1-1.3-4.5-2.1-7.1-2.1c-2.4,0-4.6,0.6-6.6,1.8c0.1,0.9,0.3,1.7,0.5,2.5
		c1.8-1.2,3.9-1.9,6.1-1.9C164.3,217.8,166.6,218.6,168.4,220z"/>
	<g>
		<path class="st5" d="M152.3,219.5C152.3,219.5,152.4,219.5,152.3,219.5L152.3,219.5C152.3,219.5,152.3,219.5,152.3,219.5z"/>
		<path class="st5" d="M155,204.3h-3.4c0.3-3,0.8-5.9,1.6-8.3c0.6,1.6,1.4,3.1,2.3,4.4C155.3,201.6,155.1,202.9,155,204.3z"/>
		<path class="st5" d="M172.9,209.5c0,3.7-0.4,7.3-1.1,10.5c-0.2,1-0.5,1.9-0.7,2.8c-0.1,0.5-0.3,1-0.5,1.4
			c-0.7,1.9-2.8,7.6-8.5,7.6c-5.7,0-7.8-5.7-8.5-7.6c-0.2-0.6-0.4-1.3-0.6-2c0.8-1,1.7-1.9,2.7-2.6c1.3,5.9,3.7,9.9,6.4,9.9
			c2.7,0,5-3.8,6.3-9.5c0.2-0.8,0.3-1.6,0.5-2.5c0.4-2.4,0.6-5.1,0.6-7.9c0-3.3-0.3-6.4-0.8-9.2c-0.3-1.6-0.7-3.1-1.2-4.4
			c-1.3-3.9-3.3-6.4-5.4-6.4c-2.1,0-4.1,2.5-5.4,6.4c-0.6-1.4-1-3-1.4-4.7c1.3-2,3.4-4,6.8-4c3.3,0,5.5,2,6.8,4
			c0.9,1.4,1.4,2.8,1.7,3.6c0.1,0.4,0.3,0.8,0.4,1.2C172.2,199.8,172.9,204.5,172.9,209.5z"/>
	</g>
	<path class="st4" d="M172.9,184.4c0,3.4-0.5,7.8-1.9,11.6c-0.1-0.4-0.3-0.8-0.4-1.2c-0.3-0.8-0.8-2.2-1.7-3.6
		c0.4-2.1,0.6-4.4,0.6-6.9c0-9.4-3.3-17.1-7.4-17.1c-4.1,0-7.4,7.6-7.4,17.1c0,2.5,0.2,4.8,0.6,6.9c0.3,1.7,0.8,3.3,1.4,4.7
		c1.3,3.4,3.3,5.5,5.4,5.5c2.1,0,4.1-2.1,5.4-5.5c0.5,1.3,0.8,2.8,1.2,4.4c-1.6,2.1-3.7,3.4-6.6,3.4c-2.8,0-5-1.4-6.6-3.4
		c-1-1.2-1.7-2.8-2.3-4.4c-1.4-3.8-1.9-8.2-1.9-11.6c0-7.2,2.3-19.4,10.8-19.4C170.6,164.9,172.9,177.1,172.9,184.4z"/>
	<g>
		<path class="st5" d="M364.9,219.5C364.9,219.5,364.9,219.5,364.9,219.5L364.9,219.5C365,219.5,365,219.5,364.9,219.5z"/>
		<path class="st5" d="M362.3,204.3h3.4c-0.3-3-0.8-5.9-1.6-8.3c-0.6,1.6-1.4,3.1-2.3,4.4C361.9,201.6,362.1,202.9,362.3,204.3z"/>
		<path class="st5" d="M344.4,209.6c0,3.7,0.4,7.3,1.1,10.5c0.2,1,0.5,1.9,0.7,2.8c0.1,0.5,0.3,1,0.5,1.4c0.7,1.9,2.8,7.6,8.5,7.6
			c5.7,0,7.8-5.7,8.5-7.6c0.2-0.6,0.4-1.3,0.6-2c-0.8-1-1.7-1.9-2.7-2.6c-1.3,5.9-3.7,9.9-6.4,9.9c-2.7,0-5-3.8-6.3-9.5
			c-0.2-0.8-0.3-1.6-0.5-2.5c-0.4-2.4-0.6-5.1-0.6-7.9c0-3.3,0.3-6.4,0.8-9.2c0.3-1.6,0.7-3.1,1.2-4.4c1.3-3.9,3.3-6.4,5.4-6.4
			c2.1,0,4.1,2.5,5.4,6.4c0.6-1.4,1-3,1.4-4.7c-1.3-2-3.4-4-6.8-4c-3.3,0-5.5,2-6.8,4c-0.9,1.4-1.4,2.8-1.7,3.6
			c-0.1,0.4-0.3,0.8-0.4,1.2C345,199.8,344.4,204.6,344.4,209.6z"/>
	</g>
	<path class="st4" d="M344.5,184.4c0,3.4,0.5,7.8,1.9,11.6c0.1-0.4,0.3-0.8,0.4-1.2c0.3-0.8,0.8-2.2,1.7-3.6
		c-0.4-2.1-0.6-4.4-0.6-6.9c0-9.4,3.3-17.1,7.4-17.1c4.1,0,7.4,7.6,7.4,17.1c0,2.5-0.2,4.8-0.6,6.9c-0.3,1.7-0.8,3.3-1.4,4.7
		c-1.3,3.4-3.3,5.5-5.4,5.5c-2.1,0-4.1-2.1-5.4-5.5c-0.5,1.3-0.8,2.8-1.1,4.4c1.6,2.1,3.7,3.4,6.6,3.4c2.8,0,5-1.4,6.6-3.4
		c1-1.2,1.7-2.8,2.3-4.4c1.4-3.8,1.9-8.2,1.9-11.6c0-7.2-2.3-19.4-10.8-19.4C346.7,164.9,344.5,177.1,344.5,184.4z"/>
	<path class="st0" d="M155.5,176.9c-0.1,0-0.2,0-0.3,0c4.6-22.1,9.2-44.3,17.4-65.9c11.3-29.9,28.6-60.1,58.1-74.3
		c18-8.6,54.7-15.2,84.4,13.4c6.2,6,11.1,12.5,15.4,19.2C351,101.9,359.2,140,362,175.5c-4.3,0.1-8.6,0.2-12.9,0.2
		c-1.2-19.6-2.4-39.2-6.7-58.5c-4.4-19.3-12-38.5-25.5-55.6C301.1,41.5,271,25.5,238.6,39c-14.3,6-24.6,15.8-32.7,26.1
		c-26.7,33.9-33.3,73.7-37.4,112.3C164.2,177.2,159.8,177,155.5,176.9z"/>
</g>
</svg>
