<?xml version="1.0" encoding="utf-8"?>
<!-- Generator: Adobe Illustrator 24.0.2, SVG Export Plug-In . SVG Version: 6.00 Build 0)  -->
<svg version="1.1" id="Layer_1" xmlns="http://www.w3.org/2000/svg" xmlns:xlink="http://www.w3.org/1999/xlink" x="0px" y="0px"
	 viewBox="0 0 500 500" style="enable-background:new 0 0 500 500;" xml:space="preserve">
<style type="text/css">
	.st0{fill-rule:evenodd;clip-rule:evenodd;fill:#F9A141;}
	.st1{fill-rule:evenodd;clip-rule:evenodd;fill:#D07E29;}
</style>
<g>
	<path class="st0" d="M262.3,28c-23-0.7-36.6-6.4-43.7-9.5c-7.2-3.2-4.8,0-22.3,8.7c-17.5,8.7-51.7,16.7-69.2,37.4
		c-17.5,20.7-56.4,73.9-65.2,77.1c-8.7,3.2,4.8,11.1,14.3,24.6c9.5,13.5,32.6,32.6,40.5,52.5c7.9,19.9-4.8,146.3-8.7,183.6
		c-4,37.4-11.9,52.5-4,54.9c7.9,2.4,48.5,23.1,72.3,23.1c23.8,0,32.6,4,49.3,1.6c16.7-2.4,28.6-4,61.2-4c32.6,0,74.7,4,99.4-5.6
		c24.6-9.5,40.5-12.7,35.8-30.2c-4.8-17.5-19.1-177.3-18.3-203.5c0.8-26.2,18.3-50.1,31.8-60.4c13.5-10.3,19.9-24.6,26.2-36.6
		s-33.4-39.8-48.5-61.2c-15.1-21.5-28.6-37.4-51.7-43.7c-23.1-6.4-31-12.7-39.7-18.3C313.2,12.9,295,29,262.3,28z"/>
	<path class="st1" d="M115.9,78.6c-19.2,24.3-46.5,60.3-53.8,63.1c0.8,13.7,14.5,10.3,17,1c2.6-9.8,11.1-24.9,11.1-12.4
		c0,12.4,6.5,14.4,7.9,2.6C99.8,117.5,112.8,87.5,115.9,78.6z"/>
	<path class="st1" d="M421.1,193.3c4.7-6.3,9.9-11.5,14.5-15c6.8-5.2,11.8-11.4,15.9-17.8c-7,5.4-26.1,7.9-27.5-7.8
		c-1.3-14.9-11.2-53.6-12.4-74.7c-4.7-6.7-9.4-12.7-14.3-18.1c-2.4,33.9-9.3,79.4-5.3,93.8c5,18,6.5,73.4,7.5,45.4
		c1-28,1.5-154.3,6-117.8c4.5,36.4,4.5,69.9,4.5,83.4c0,13.5-1,18.5,10,12.5C429.5,171.9,424.8,182.8,421.1,193.3z"/>
	<path class="st1" d="M216.4,17.6c-4.1-1.3-4.6,1.1-14.8,6.8c0.2,1.3,0.6,2.6,1.1,3.7c5.2,11.8,17,19,17,32.1
		c0,13.1-7.2,42.5-11.8,77.2c-4.6,34.7-11.8-39.9-11.8-70c0-30.1-13.1,37.3-7.2,62.8c5.9,25.5-6.5,73.9-7.9,127.6
		c-1.3,53.7,7.2,170.8,9.8,187.2c2.6,16.4,5.2,24.9,2.6,32.7c-2.6,7.9-15.7-3.3-22.3-1.3c-6.5,2-40.6-8.5-45.8-13.1
		c-5.2-4.6,19-19,18.3-35.3c-0.7-16.4,5.9-109.9,3.9-149.9c-2-39.9-2-150.5-5.2-191.7c-3.3-41.2-4.6,96.2-11.1,125.6
		c-6.5,29.4-0.7-105.4-0.7-135.5c0-30.1-6.5,2-6.5,20.9c0,19-6.5,47.1-8.5,65.4c-2,18.3,1.3,44.5-2.6,35.3
		c-3.2-7.5-23.6-26-42.8-39.3c2,2.3,4.1,4.7,6,7.4c9.5,13.5,32.6,32.6,40.5,52.5c7.9,19.9-4.8,146.3-8.7,183.6
		c-4,37.4-11.9,52.5-4,54.9c7.9,2.4,48.5,23.1,72.3,23.1c23.8,0,32.6,4,49.3,1.6c16.7-2.4,28.6-4,61.2-4c32.6,0,74.7,4,99.4-5.6
		c24.6-9.5,40.5-12.7,35.8-30.2c-1-3.6-2.3-13.1-3.9-26.2c-6.6-34.5-13.7-83.9-14.6-100.7c-1.3-24.9-6.5,5.9-1.3,32.7
		c5.2,26.8,18.3,91,18.3,102.1c0,11.1-13.7,9.8-20.3,13.1c-6.5,3.3-7.9-15.1-20.9-38.6c-13.1-23.6-9.8-115.8-9.2-150.5
		c0.7-34.7-10.5-159-14.4-176.7c-3.9-17.7-4.6,36.6-4.6,66.7c0,30.1-5.2,93.6-4.6,127c0.7,33.4,6.5,128.3,13.7,145.9
		c7.2,17.7,3.3,34-5.9,35.3c-9.2,1.3-49.1,3.3-56.3,3.3c-7.2,0-9.8-34-9.8-54.3c0-20.3,1.3-155.7,1.3-180
		c0-24.2,10.5-142.7,10.5-166.2c0-23.6-7.9,55-14.4,87.7c-6.5,32.7-9.2,61.5-5.2,75.3c3.9,13.7,3.9,104.7,4.6,140.7
		c0.7,36-5.9,38.6-7.2,30.1c-1.3-8.5-18.3-147.2-24.2-175.4c-5.9-28.1,3.3,42.5,7.9,73.9c4.6,31.4,7.2,91.6,7.9,103.4
		c0.7,11.8,8.5,29.4,12.4,41.9c3.9,12.4-2,20.3-9.2,20.9c-7.2,0.7-31.4-1.3-39.9,2c-8.5,3.3-11.1-15.7-11.1-37.3
		c0-21.6,3.3-228.4,3.9-252.6c0.7-24.2,2-108,2-118.4c0-10.5-1.3-10.5,5.2-5.9c6.5,4.6,15.1,6.5,16.4,19.6c1.3,13.1-0.7,38,4.6,46.5
		c5.2,8.5,3.9-24.2,2-36.6c-2-12.4-5.2-17.7,0-15.1c5.2,2.6,5.9,16.4,5.9,32.7c0,16.4,2.6,38.6,3.3,55.6c0.7,17,6.5,44.5,7.2,36
		c0.7-8.5-4.6-26.2-4.6-38c0-11.8,7.9-43.8,9.8-58.2c2-14.4,0.1-37,9-42c5.2-2.9,12.8-8.7,18-15.5c7.1-9.3,8.5,9.3,8.9,16.8
		c0.5,10.3-1.5,71.4,4.4,99.8c5.9,28.4,18.6,71,16.6,47c-2-24-14.7-127.2-17.1-144.4c-2.4-17.1,12.2,29.4,17.1,45
		c4.9,15.7-12-58-16.4-69.7c-2.6-6.9-3.1-11.1-1.3-16c0.9-2.5,1.4-5.1,1.9-7.7c-2.3-0.2-5.1,0.3-8.4,1.3c-0.9,6.8-2.8,13-4.6,20
		c-2.6,9.8-25.5,22.9-31.4,28.1c-5.9,5.2-11.8,13.7-12.4,7.9c-0.7-5.9-6.5-11.8-18.3-19C233.2,49.4,222.5,33.9,216.4,17.6z"/>
	<path class="st1" d="M215.7,21.6c1.2,3.8,6.4,10.9,2.9,13.8c-3.6,2.9-4.5,4.8-7.6-1.4c-3.1-6.2-5-6.4-1.9-8.8
		C212.2,22.8,214.3,19.4,215.7,21.6z"/>
</g>
</svg>
